<?xml version="1.0" encoding="UTF-8" standalone="no"?>
<!DOCTYPE svg PUBLIC "-//W3C//DTD SVG 1.1//EN"
 "http://www.w3.org/Graphics/SVG/1.1/DTD/svg11.dtd">
<!-- Generated by graphviz version 2.40.1 (20161225.0304)
 -->
<!-- Title: dependencies Pages: 1 -->
<svg width="744pt" height="284pt"
 viewBox="0.00 0.00 744.00 284.00" xmlns="http://www.w3.org/2000/svg" xmlns:xlink="http://www.w3.org/1999/xlink">
<g id="graph0" class="graph" transform="scale(1 1) rotate(0) translate(4 280)">
<title>dependencies</title>
<polygon fill="#ffffff" stroke="transparent" points="-4,4 -4,-280 740,-280 740,4 -4,4"/>
<text text-anchor="start" x="347.0091" y="-42.4" font-family="sans-serif" font-weight="bold" font-size="14.00" fill="#000000">Legend</text>
<polygon fill="#ffffb3" stroke="transparent" points="134,-10 134,-30 154,-30 154,-10 134,-10"/>
<text text-anchor="start" x="157.629" y="-15.4" font-family="sans-serif" font-size="14.00" fill="#000000"> &#160;Declarations</text>
<polygon fill="#8dd3c7" stroke="transparent" points="247,-10 247,-30 267,-30 267,-10 247,-10"/>
<text text-anchor="start" x="270.7251" y="-15.4" font-family="sans-serif" font-size="14.00" fill="#000000"> &#160;Module</text>
<polygon fill="#80b1d3" stroke="transparent" points="333,-10 333,-30 353,-30 353,-10 333,-10"/>
<text text-anchor="start" x="356.7812" y="-15.4" font-family="sans-serif" font-size="14.00" fill="#000000"> &#160;Bootstrap</text>
<polygon fill="#fdb462" stroke="transparent" points="430,-10 430,-30 450,-30 450,-10 430,-10"/>
<text text-anchor="start" x="453.6732" y="-15.4" font-family="sans-serif" font-size="14.00" fill="#000000"> &#160;Providers</text>
<polygon fill="#fb8072" stroke="transparent" points="526,-10 526,-30 546,-30 546,-10 526,-10"/>
<text text-anchor="start" x="549.7258" y="-15.4" font-family="sans-serif" font-size="14.00" fill="#000000"> &#160;Exports</text>
<g id="clust1" class="cluster">
<title>cluster_DualListBoxModule</title>
<polygon fill="none" stroke="#000000" stroke-dasharray="1,5" points="8,-70 8,-268 728,-268 728,-70 8,-70"/>
</g>
<g id="clust2" class="cluster">
<title>cluster_DualListBoxModule_declarations</title>
<polygon fill="none" stroke="#000000" points="314,-78 314,-130 720,-130 720,-78 314,-78"/>
</g>
<g id="clust6" class="cluster">
<title>cluster_DualListBoxModule_imports</title>
<polygon fill="none" stroke="#000000" points="16,-78 16,-130 306,-130 306,-78 16,-78"/>
</g>
<g id="clust7" class="cluster">
<title>cluster_DualListBoxModule_exports</title>
<polygon fill="none" stroke="#000000" points="312,-208 312,-260 486,-260 486,-208 312,-208"/>
</g>
<!-- ArraySortPipe -->
<g id="node1" class="node">
<title>ArraySortPipe</title>
<polygon fill="#ffffb3" stroke="#000000" points="712.3641,-122 615.6359,-122 615.6359,-86 712.3641,-86 712.3641,-122"/>
<text text-anchor="middle" x="664" y="-99.8" font-family="Times,serif" font-size="14.00" fill="#000000">ArraySortPipe</text>
</g>
<!-- DualListBoxModule -->
<g id="node4" class="node">
<title>DualListBoxModule</title>
<polygon fill="#8dd3c7" stroke="#000000" points="464.8767,-187 461.8767,-191 440.8767,-191 437.8767,-187 333.1233,-187 333.1233,-151 464.8767,-151 464.8767,-187"/>
<text text-anchor="middle" x="399" y="-164.8" font-family="Times,serif" font-size="14.00" fill="#000000">DualListBoxModule</text>
</g>
<!-- ArraySortPipe&#45;&gt;DualListBoxModule -->
<g id="edge1" class="edge">
<title>ArraySortPipe&#45;&gt;DualListBoxModule</title>
<path fill="none" stroke="#000000" d="M664,-122.2843C664,-143.3211 664,-175 664,-175 664,-175 475.1871,-175 475.1871,-175"/>
<polygon fill="#000000" stroke="#000000" points="475.1871,-171.5001 465.1871,-175 475.1871,-178.5001 475.1871,-171.5001"/>
</g>
<!-- ArrayFilterPipe -->
<g id="node2" class="node">
<title>ArrayFilterPipe</title>
<polygon fill="#ffffb3" stroke="#000000" points="597.8599,-122 494.1401,-122 494.1401,-86 597.8599,-86 597.8599,-122"/>
<text text-anchor="middle" x="546" y="-99.8" font-family="Times,serif" font-size="14.00" fill="#000000">ArrayFilterPipe</text>
</g>
<!-- ArrayFilterPipe&#45;&gt;DualListBoxModule -->
<g id="edge2" class="edge">
<title>ArrayFilterPipe&#45;&gt;DualListBoxModule</title>
<path fill="none" stroke="#000000" d="M546,-122.0225C546,-139.3734 546,-163 546,-163 546,-163 475.1895,-163 475.1895,-163"/>
<polygon fill="#000000" stroke="#000000" points="475.1895,-159.5001 465.1895,-163 475.1894,-166.5001 475.1895,-159.5001"/>
</g>
<!-- DualListBoxComponent -->
<g id="node3" class="node">
<title>DualListBoxComponent</title>
<polygon fill="#ffffb3" stroke="#000000" points="475.6596,-122 322.3404,-122 322.3404,-86 475.6596,-86 475.6596,-122"/>
<text text-anchor="middle" x="399" y="-99.8" font-family="Times,serif" font-size="14.00" fill="#000000">DualListBoxComponent</text>
</g>
<!-- DualListBoxComponent&#45;&gt;DualListBoxModule -->
<g id="edge3" class="edge">
<title>DualListBoxComponent&#45;&gt;DualListBoxModule</title>
<path fill="none" stroke="#000000" d="M399,-122.1061C399,-122.1061 399,-140.991 399,-140.991"/>
<polygon fill="#000000" stroke="#000000" points="395.5001,-140.9909 399,-150.991 402.5001,-140.991 395.5001,-140.9909"/>
</g>
<!-- DualListBoxComponent  -->
<g id="node7" class="node">
<title>DualListBoxComponent </title>
<polygon fill="#fb8072" stroke="#000000" points="477.6593,-252 320.3407,-252 320.3407,-216 477.6593,-216 477.6593,-252"/>
<text text-anchor="middle" x="399" y="-229.8" font-family="Times,serif" font-size="14.00" fill="#000000">DualListBoxComponent </text>
</g>
<!-- DualListBoxModule&#45;&gt;DualListBoxComponent  -->
<g id="edge6" class="edge">
<title>DualListBoxModule&#45;&gt;DualListBoxComponent </title>
<path fill="none" stroke="#000000" stroke-dasharray="5,2" d="M399,-187.1061C399,-187.1061 399,-205.991 399,-205.991"/>
<polygon fill="#000000" stroke="#000000" points="395.5001,-205.9909 399,-215.991 402.5001,-205.991 395.5001,-205.9909"/>
</g>
<!-- CommonModule -->
<g id="node5" class="node">
<title>CommonModule</title>
<polygon fill="#8dd3c7" stroke="#000000" points="297.6681,-122 294.6681,-126 273.6681,-126 270.6681,-122 186.3319,-122 186.3319,-86 297.6681,-86 297.6681,-122"/>
<text text-anchor="middle" x="242" y="-99.8" font-family="Times,serif" font-size="14.00" fill="#000000">CommonModule</text>
</g>
<!-- CommonModule&#45;&gt;DualListBoxModule -->
<g id="edge4" class="edge">
<title>CommonModule&#45;&gt;DualListBoxModule</title>
<path fill="none" stroke="#000000" d="M242,-122.0225C242,-139.3734 242,-163 242,-163 242,-163 322.8729,-163 322.8729,-163"/>
<polygon fill="#000000" stroke="#000000" points="322.8729,-166.5001 332.8729,-163 322.8729,-159.5001 322.8729,-166.5001"/>
</g>
<!-- ReactiveFormsModule -->
<g id="node6" class="node">
<title>ReactiveFormsModule</title>
<polygon fill="#8dd3c7" stroke="#000000" points="168.3047,-122 165.3047,-126 144.3047,-126 141.3047,-122 23.6953,-122 23.6953,-86 168.3047,-86 168.3047,-122"/>
<text text-anchor="middle" x="96" y="-99.8" font-family="Times,serif" font-size="14.00" fill="#000000">ReactiveFormsModule</text>
</g>
<!-- ReactiveFormsModule&#45;&gt;DualListBoxModule -->
<g id="edge5" class="edge">
<title>ReactiveFormsModule&#45;&gt;DualListBoxModule</title>
<path fill="none" stroke="#000000" d="M96,-122.2843C96,-143.3211 96,-175 96,-175 96,-175 322.8798,-175 322.8798,-175"/>
<polygon fill="#000000" stroke="#000000" points="322.8798,-178.5001 332.8798,-175 322.8797,-171.5001 322.8798,-178.5001"/>
</g>
</g>
</svg>
